<svg version="1.1" id="Layer_1" xmlns="http://www.w3.org/2000/svg" xmlns:xlink="http://www.w3.org/1999/xlink" x="0px" y="0px"
	 width="100%" viewBox="0 0 500 500" enable-background="new 0 0 500 500" xml:space="preserve">
<path fill="#FFFFFF" opacity="1.000000" stroke="none" 
	d="
M281.000000,501.000000 
	C187.333359,501.000000 94.166710,501.000000 1.000050,501.000000 
	C1.000033,334.333405 1.000033,167.666794 1.000017,1.000139 
	C167.666565,1.000093 334.333130,1.000093 500.999756,1.000046 
	C500.999847,167.666519 500.999847,334.333038 500.999939,500.999786 
	C427.833344,501.000000 354.666656,501.000000 281.000000,501.000000 
M349.517181,252.817352 
	C349.738861,252.661148 349.897430,252.456100 350.918762,252.047134 
	C356.907379,251.950455 362.895966,251.853760 369.534485,251.644897 
	C369.905518,251.879211 370.276550,252.113525 370.561493,253.236740 
	C370.561493,268.999023 370.561493,284.761322 370.561493,300.737061 
	C385.524323,300.737061 400.261322,300.737061 415.922546,300.907990 
	C424.916595,300.940125 433.910736,301.017517 442.904633,300.994385 
	C458.695435,300.953766 467.214935,293.889954 467.786957,278.023651 
	C468.560486,256.569305 468.298645,235.056412 467.778839,213.585617 
	C467.521545,202.958359 461.309113,194.996307 452.254395,194.258682 
	C440.098419,193.268417 427.801117,194.013290 415.036591,194.013290 
	C415.036591,222.555145 415.036591,251.339569 414.098083,280.038116 
	C406.997894,280.038116 399.897705,280.038116 392.864380,280.038116 
	C392.864380,271.465607 392.864380,263.438660 392.864380,255.012131 
	C399.713806,255.012131 406.132050,255.012131 412.607544,255.012131 
	C412.607544,248.184875 412.607544,241.777557 412.607544,234.869537 
	C405.818085,234.869537 399.263763,234.869537 392.788879,234.869537 
	C392.788879,227.642303 392.788879,220.923416 392.788879,213.824188 
	C399.901306,213.824188 406.659149,213.824188 413.323975,213.824188 
	C413.323975,206.721802 413.323975,200.021927 413.323975,193.497345 
	C398.609314,193.497345 384.308197,193.497345 369.115448,193.186768 
	C355.215302,193.186768 341.315186,193.186768 327.435425,193.186768 
	C327.435425,229.477585 327.435425,265.037018 327.435425,300.686523 
	C334.721008,300.686523 341.762512,300.686523 349.166199,300.686523 
	C349.166199,284.580353 349.166199,268.787811 349.517181,252.817352 
M271.413483,193.105438 
	C270.857422,193.123276 270.301392,193.141098 268.840271,193.152435 
	C262.404694,193.152435 255.969131,193.152435 249.176178,193.152435 
	C249.176178,195.560654 249.176178,197.362137 249.176178,199.163620 
	C249.176102,222.820877 249.207687,246.478210 249.135956,270.135254 
	C249.126968,273.099701 248.943039,276.173065 248.106613,278.977112 
	C247.717880,280.280273 245.519135,281.928162 244.233414,281.852295 
	C242.670441,281.760010 240.338257,280.302551 239.880203,278.923676 
	C238.963486,276.164062 238.843643,273.056763 238.834717,270.091675 
	C238.763077,246.268036 238.794052,222.444077 238.793640,198.620224 
	C238.793610,196.867523 238.793640,195.114822 238.793640,193.415619 
	C188.327805,193.415619 138.616547,193.415619 88.739517,193.415619 
	C88.739517,229.389297 88.739517,264.987427 88.739517,300.794739 
	C103.510880,300.794739 118.079948,300.794739 132.811249,300.794739 
	C132.811249,293.860779 132.811249,287.129364 132.811249,280.010559 
	C125.329796,280.010559 118.064125,280.010559 110.857544,280.010559 
	C110.857544,271.592316 110.857544,263.569733 110.857544,255.108368 
	C117.680794,255.108368 124.099106,255.108368 130.633179,255.108368 
	C130.633179,248.239059 130.633179,241.826172 130.633179,234.972290 
	C123.821350,234.972290 117.224968,234.972290 110.735535,234.972290 
	C110.735535,227.786362 110.735535,221.047226 110.735535,214.195007 
	C121.471107,214.195007 131.911087,214.195007 142.703918,214.195007 
	C142.703918,243.211517 142.703918,271.987549 142.703918,300.734528 
	C149.988800,300.734528 156.915543,300.734528 164.226959,300.734528 
	C164.226959,271.729279 164.226959,242.991302 164.226959,214.255432 
	C168.350876,214.255432 172.077438,214.255432 176.175018,214.255432 
	C176.175018,243.292175 176.175018,272.027924 176.175018,300.783936 
	C183.487930,300.783936 190.415115,300.783936 197.808075,300.783936 
	C197.808075,284.513885 197.808075,268.455933 197.808075,252.313507 
	C204.679993,252.313507 211.080002,252.313507 217.986435,252.313507 
	C217.986435,260.711578 217.608322,268.862366 218.082184,276.963287 
	C218.674133,287.083008 221.922058,295.996948 232.446945,300.058319 
	C252.058365,307.626038 268.388153,297.368286 270.018555,276.543182 
	C270.057495,276.045593 270.121918,275.550018 270.948669,275.089203 
	C271.205597,275.062164 271.462555,275.035095 271.827271,275.850525 
	C271.827271,284.118835 271.827271,292.387146 271.827271,300.766174 
	C279.040100,300.766174 285.777649,300.766174 292.892273,300.766174 
	C292.892273,284.492798 292.892273,268.452728 292.892273,252.412659 
	C293.209015,252.372879 293.525757,252.333099 293.842468,252.293304 
	C297.108643,268.461823 300.374786,284.630341 303.602417,300.608093 
	C310.911682,300.608093 317.788239,300.608093 324.496185,300.608093 
	C324.496185,264.650055 324.496185,229.090012 324.496185,193.348724 
	C317.611359,193.348724 311.026245,193.348724 303.915283,193.348724 
	C303.915283,209.077148 303.915283,224.618164 303.915283,240.159180 
	C303.628326,240.178131 303.341370,240.197067 303.054443,240.216019 
	C300.019684,224.602203 296.984924,208.988403 293.907837,193.156891 
	C286.541748,193.156891 279.394165,193.156891 271.413483,193.105438 
M68.780571,298.435730 
	C70.609512,296.450226 72.438461,294.464722 74.535118,292.188568 
	C76.004005,295.636688 77.109726,298.232300 78.175323,300.733704 
	C81.080620,300.733704 83.840118,300.733704 86.492943,300.733704 
	C86.492943,279.756500 86.492943,259.054443 86.492943,238.513535 
	C77.670250,238.513535 69.258659,238.513535 60.762230,238.513535 
	C60.762230,244.772156 60.762230,250.701767 60.762230,256.707794 
	C62.651958,256.832062 64.257729,256.937653 65.972328,257.050415 
	C65.972328,263.652557 66.139221,269.958374 65.898445,276.248596 
	C65.786346,279.177032 64.625404,281.843994 60.957207,282.076569 
	C56.952347,282.330505 55.945065,279.534027 55.238518,276.455780 
	C55.090836,275.812347 55.050400,275.132202 55.049812,274.468903 
	C55.033451,255.973236 54.987999,237.477402 55.056446,218.982010 
	C55.069984,215.324142 56.493416,212.246552 60.713360,212.125961 
	C65.404503,211.991913 65.783699,215.658844 65.941536,219.074753 
	C66.106537,222.645660 65.978394,226.230103 65.978394,229.705505 
	C73.374550,229.705505 79.989418,229.705505 86.947266,229.705505 
	C87.195847,221.155746 86.617149,212.936020 83.390350,205.129288 
	C80.889145,199.078033 76.378090,194.918625 69.978477,193.436020 
	C52.989456,189.500183 34.621220,193.913162 33.807842,219.453354 
	C33.765415,220.785599 33.719616,222.118530 33.719116,223.451172 
	C33.713467,238.447983 33.598827,253.446213 33.781826,268.440796 
	C33.844494,273.575867 34.139767,278.814453 35.224575,283.811249 
	C38.777294,300.175629 53.313221,306.684540 68.780571,298.435730 
z"/>
<path fill="#020202" opacity="1.000000" stroke="none" 
	d="
M270.174500,275.053497 
	C270.121918,275.550018 270.057495,276.045593 270.018555,276.543182 
	C268.388153,297.368286 252.058365,307.626038 232.446945,300.058319 
	C221.922058,295.996948 218.674133,287.083008 218.082184,276.963287 
	C217.608322,268.862366 217.986435,260.711578 217.986435,252.313507 
	C211.080002,252.313507 204.679993,252.313507 197.808075,252.313507 
	C197.808075,268.455933 197.808075,284.513885 197.808075,300.783936 
	C190.415115,300.783936 183.487930,300.783936 176.175018,300.783936 
	C176.175018,272.027924 176.175018,243.292175 176.175018,214.255432 
	C172.077438,214.255432 168.350876,214.255432 164.226959,214.255432 
	C164.226959,242.991302 164.226959,271.729279 164.226959,300.734528 
	C156.915543,300.734528 149.988800,300.734528 142.703918,300.734528 
	C142.703918,271.987549 142.703918,243.211517 142.703918,214.195007 
	C131.911087,214.195007 121.471107,214.195007 110.735535,214.195007 
	C110.735535,221.047226 110.735535,227.786362 110.735535,234.972290 
	C117.224968,234.972290 123.821350,234.972290 130.633179,234.972290 
	C130.633179,241.826172 130.633179,248.239059 130.633179,255.108368 
	C124.099106,255.108368 117.680794,255.108368 110.857544,255.108368 
	C110.857544,263.569733 110.857544,271.592316 110.857544,280.010559 
	C118.064125,280.010559 125.329796,280.010559 132.811249,280.010559 
	C132.811249,287.129364 132.811249,293.860779 132.811249,300.794739 
	C118.079948,300.794739 103.510880,300.794739 88.739517,300.794739 
	C88.739517,264.987427 88.739517,229.389297 88.739517,193.415619 
	C138.616547,193.415619 188.327805,193.415619 238.793640,193.415619 
	C238.793640,195.114822 238.793610,196.867523 238.793640,198.620224 
	C238.794052,222.444077 238.763077,246.268036 238.834717,270.091675 
	C238.843643,273.056763 238.963486,276.164062 239.880203,278.923676 
	C240.338257,280.302551 242.670441,281.760010 244.233414,281.852295 
	C245.519135,281.928162 247.717880,280.280273 248.106613,278.977112 
	C248.943039,276.173065 249.126968,273.099701 249.135956,270.135254 
	C249.207687,246.478210 249.176102,222.820877 249.176178,199.163620 
	C249.176178,197.362137 249.176178,195.560654 249.176178,193.152435 
	C255.969131,193.152435 262.404694,193.152435 269.369141,193.608810 
	C269.930634,197.045822 269.984436,200.026382 269.992554,203.007095 
	C270.058075,227.022552 270.114960,251.038025 270.174500,275.053497 
M197.779205,217.641159 
	C197.779205,222.066071 197.779205,226.490967 197.779205,231.080948 
	C204.623016,231.080948 210.994492,231.080948 217.499847,231.080948 
	C217.499847,225.344376 217.499847,219.838455 217.499847,214.098938 
	C211.531982,214.098938 205.912354,213.988739 200.306213,214.213913 
	C199.432922,214.248978 198.621094,215.813751 197.779205,217.641159 
z"/>
<path fill="#030303" opacity="1.000000" stroke="none" 
	d="
M272.246582,193.156891 
	C279.394165,193.156891 286.541748,193.156891 293.907837,193.156891 
	C296.984924,208.988403 300.019684,224.602203 303.054443,240.216019 
	C303.341370,240.197067 303.628326,240.178131 303.915283,240.159180 
	C303.915283,224.618164 303.915283,209.077148 303.915283,193.348724 
	C311.026245,193.348724 317.611359,193.348724 324.496185,193.348724 
	C324.496185,229.090012 324.496185,264.650055 324.496185,300.608093 
	C317.788239,300.608093 310.911682,300.608093 303.602417,300.608093 
	C300.374786,284.630341 297.108643,268.461823 293.842468,252.293304 
	C293.525757,252.333099 293.209015,252.372879 292.892273,252.412659 
	C292.892273,268.452728 292.892273,284.492798 292.892273,300.766174 
	C285.777649,300.766174 279.040100,300.766174 271.827271,300.766174 
	C271.827271,292.387146 271.827271,284.118835 271.891418,275.039368 
	C271.964600,266.766022 271.956299,259.303741 271.986053,251.841629 
	C272.064026,232.280014 272.158630,212.718460 272.246582,193.156891 
z"/>
<path fill="#030303" opacity="1.000000" stroke="none" 
	d="
M415.036621,280.123993 
	C415.036591,251.339569 415.036591,222.555145 415.036591,194.013290 
	C427.801117,194.013290 440.098419,193.268417 452.254395,194.258682 
	C461.309113,194.996307 467.521545,202.958359 467.778839,213.585617 
	C468.298645,235.056412 468.560486,256.569305 467.786957,278.023651 
	C467.214935,293.889954 458.695435,300.953766 442.904633,300.994385 
	C433.910736,301.017517 424.916595,300.940125 415.456543,300.370789 
	C415.005920,293.263702 415.021271,286.693848 415.036621,280.123993 
M436.966644,222.525360 
	C436.966644,242.272629 436.966644,262.019897 436.966644,281.735413 
	C444.820618,282.177246 446.681091,280.943634 446.708313,274.973694 
	C446.791718,256.681824 446.816132,238.388657 446.682983,220.097305 
	C446.628845,212.656525 444.633087,211.256470 436.966644,212.650009 
	C436.966644,215.583710 436.966644,218.560547 436.966644,222.525360 
z"/>
<path fill="#040404" opacity="1.000000" stroke="none" 
	d="
M68.477676,298.653442 
	C53.313221,306.684540 38.777294,300.175629 35.224575,283.811249 
	C34.139767,278.814453 33.844494,273.575867 33.781826,268.440796 
	C33.598827,253.446213 33.713467,238.447983 33.719116,223.451172 
	C33.719616,222.118530 33.765415,220.785599 33.807842,219.453354 
	C34.621220,193.913162 52.989456,189.500183 69.978477,193.436020 
	C76.378090,194.918625 80.889145,199.078033 83.390350,205.129288 
	C86.617149,212.936020 87.195847,221.155746 86.947266,229.705505 
	C79.989418,229.705505 73.374550,229.705505 65.978394,229.705505 
	C65.978394,226.230103 66.106537,222.645660 65.941536,219.074753 
	C65.783699,215.658844 65.404503,211.991913 60.713360,212.125961 
	C56.493416,212.246552 55.069984,215.324142 55.056446,218.982010 
	C54.987999,237.477402 55.033451,255.973236 55.049812,274.468903 
	C55.050400,275.132202 55.090836,275.812347 55.238518,276.455780 
	C55.945065,279.534027 56.952347,282.330505 60.957207,282.076569 
	C64.625404,281.843994 65.786346,279.177032 65.898445,276.248596 
	C66.139221,269.958374 65.972328,263.652557 65.972328,257.050415 
	C64.257729,256.937653 62.651958,256.832062 60.762230,256.707794 
	C60.762230,250.701767 60.762230,244.772156 60.762230,238.513535 
	C69.258659,238.513535 77.670250,238.513535 86.492943,238.513535 
	C86.492943,259.054443 86.492943,279.756500 86.492943,300.733704 
	C83.840118,300.733704 81.080620,300.733704 78.175323,300.733704 
	C77.109726,298.232300 76.004005,295.636688 74.535118,292.188568 
	C72.438461,294.464722 70.609512,296.450226 68.477676,298.653442 
z"/>
<path fill="#000000" opacity="1.000000" stroke="none" 
	d="
M414.567352,280.081055 
	C415.021271,286.693848 415.005920,293.263702 414.994446,300.285309 
	C400.261322,300.737061 385.524323,300.737061 370.561493,300.737061 
	C370.561493,284.761322 370.561493,268.999023 370.793823,252.332336 
	C370.905487,244.846924 370.784851,238.265930 370.624847,231.239502 
	C370.403534,225.140869 370.221558,219.487625 370.018951,213.702179 
	C369.998322,213.569946 369.946899,213.307266 370.281433,213.005737 
	C370.392914,206.700394 370.169891,200.696594 369.963684,194.493927 
	C369.996460,194.029404 370.005310,193.763504 370.007111,193.497345 
	C384.308197,193.497345 398.609314,193.497345 413.323975,193.497345 
	C413.323975,200.021927 413.323975,206.721802 413.323975,213.824188 
	C406.659149,213.824188 399.901306,213.824188 392.788879,213.824188 
	C392.788879,220.923416 392.788879,227.642303 392.788879,234.869537 
	C399.263763,234.869537 405.818085,234.869537 412.607544,234.869537 
	C412.607544,241.777557 412.607544,248.184875 412.607544,255.012131 
	C406.132050,255.012131 399.713806,255.012131 392.864380,255.012131 
	C392.864380,263.438660 392.864380,271.465607 392.864380,280.038116 
	C399.897705,280.038116 406.997894,280.038116 414.567352,280.081055 
z"/>
<path fill="#010101" opacity="1.000000" stroke="none" 
	d="
M369.561279,193.342056 
	C370.005310,193.763504 369.996460,194.029404 369.999390,194.994049 
	C369.994476,201.564423 369.970703,207.435852 369.946899,213.307266 
	C369.946899,213.307266 369.998322,213.569946 369.560547,213.818832 
	C362.514465,214.067719 355.906189,214.067719 349.136932,214.067719 
	C349.136932,220.052094 349.136932,225.494522 349.136932,230.911774 
	C355.853241,231.299057 362.410065,231.677155 368.884857,232.514130 
	C368.830078,239.234375 368.857330,245.495743 368.884583,251.757080 
	C362.895966,251.853760 356.907379,251.950455 350.191162,252.067383 
	C349.364441,252.390182 349.265320,252.692703 349.166199,252.995239 
	C349.166199,268.787811 349.166199,284.580353 349.166199,300.686523 
	C341.762512,300.686523 334.721008,300.686523 327.435425,300.686523 
	C327.435425,265.037018 327.435425,229.477585 327.435425,193.186768 
	C341.315186,193.186768 355.215302,193.186768 369.561279,193.342056 
z"/>
<path fill="#C7C7C7" opacity="1.000000" stroke="none" 
	d="
M271.830017,193.131165 
	C272.158630,212.718460 272.064026,232.280014 271.986053,251.841629 
	C271.956299,259.303741 271.964600,266.766022 271.837524,274.618103 
	C271.462555,275.035095 271.205597,275.062164 270.561584,275.071350 
	C270.114960,251.038025 270.058075,227.022552 269.992554,203.007095 
	C269.984436,200.026382 269.930634,197.045822 269.821686,193.612061 
	C270.301392,193.141098 270.857422,193.123276 271.830017,193.131165 
z"/>
<path fill="#585858" opacity="1.000000" stroke="none" 
	d="
M369.209534,251.700989 
	C368.857330,245.495743 368.830078,239.234375 369.183655,232.578964 
	C369.931091,232.018250 370.297638,231.851593 370.664185,231.684937 
	C370.784851,238.265930 370.905487,244.846924 370.836853,251.887878 
	C370.276550,252.113525 369.905518,251.879211 369.209534,251.700989 
z"/>
<path fill="#F8F8F8" opacity="1.000000" stroke="none" 
	d="
M349.341675,252.906296 
	C349.265320,252.692703 349.364441,252.390182 349.728210,252.144943 
	C349.897430,252.456100 349.738861,252.661148 349.341675,252.906296 
z"/>
<path fill="#F9F9F9" opacity="1.000000" stroke="none" 
	d="
M197.780029,217.156158 
	C198.621094,215.813751 199.432922,214.248978 200.306213,214.213913 
	C205.912354,213.988739 211.531982,214.098938 217.499847,214.098938 
	C217.499847,219.838455 217.499847,225.344376 217.499847,231.080948 
	C210.994492,231.080948 204.623016,231.080948 197.779205,231.080948 
	C197.779205,226.490967 197.779205,222.066071 197.780029,217.156158 
z"/>
<path fill="#F6F6F6" opacity="1.000000" stroke="none" 
	d="
M436.966644,222.031372 
	C436.966644,218.560547 436.966644,215.583710 436.966644,212.650009 
	C444.633087,211.256470 446.628845,212.656525 446.682983,220.097305 
	C446.816132,238.388657 446.791718,256.681824 446.708313,274.973694 
	C446.681091,280.943634 444.820618,282.177246 436.966644,281.735413 
	C436.966644,262.019897 436.966644,242.272629 436.966644,222.031372 
z"/>
<path fill="#F8F8F8" opacity="1.000000" stroke="none" 
	d="
M370.624847,231.239517 
	C370.297638,231.851593 369.931091,232.018250 369.265686,232.120087 
	C362.410065,231.677155 355.853241,231.299057 349.136932,230.911774 
	C349.136932,225.494522 349.136932,220.052094 349.136932,214.067719 
	C355.906189,214.067719 362.514465,214.067719 369.581177,213.951050 
	C370.221558,219.487625 370.403534,225.140869 370.624847,231.239517 
z"/>
<path fill="#585858" opacity="1.000000" stroke="none" 
	d="
M370.281433,213.005737 
	C369.970703,207.435852 369.994476,201.564423 369.982574,195.192902 
	C370.169891,200.696594 370.392914,206.700394 370.281433,213.005737 
z"/>
</svg>