<svg version="1.1" id="Layer_1" xmlns="http://www.w3.org/2000/svg" xmlns:xlink="http://www.w3.org/1999/xlink" x="0px" y="0px"
	 width="100%" viewBox="0 0 500 500" enable-background="new 0 0 500 500" xml:space="preserve">
<path fill="#000000" opacity="1.000000" stroke="none" 
	d="
M449.000000,501.000000 
	C299.333374,501.000000 150.166733,501.000000 1.000080,501.000000 
	C1.000053,334.333405 1.000053,167.666824 1.000027,1.000170 
	C167.666550,1.000113 334.333099,1.000113 500.999756,1.000057 
	C500.999817,167.666519 500.999817,334.333038 500.999908,500.999756 
	C483.833344,501.000000 466.666656,501.000000 449.000000,501.000000 
M157.174637,243.184250 
	C157.725494,241.618988 159.169891,239.534058 158.628891,238.603790 
	C157.693329,236.995071 155.626938,235.293747 153.855072,235.072632 
	C149.752441,234.560699 145.415771,234.314377 141.428818,235.160736 
	C139.419113,235.587372 136.798599,238.455765 136.491989,240.522354 
	C135.766205,245.414566 136.136963,250.491486 136.300400,255.485992 
	C136.413040,258.928802 138.257538,261.005341 141.918167,261.020905 
	C145.751328,261.037201 149.685791,261.542450 153.378235,260.821381 
	C155.447189,260.417358 158.268768,258.237793 158.716736,256.370209 
	C159.569794,252.813782 158.964111,248.907455 158.964111,245.221909 
	C154.575546,245.221909 150.817429,245.221909 147.017487,245.221909 
	C147.017487,247.077057 147.017487,248.684372 147.017487,250.467316 
	C148.825317,250.635330 150.414307,250.783020 152.414612,250.968918 
	C152.284515,252.560928 152.174652,253.905304 152.083344,255.022675 
	C148.763199,255.022675 145.995682,255.022675 143.134613,255.022675 
	C143.134613,250.125687 143.134613,245.537628 143.134613,240.743729 
	C144.315369,240.636063 145.336563,240.296036 146.228882,240.505371 
	C149.635315,241.304474 153.000214,242.280518 157.174637,243.184250 
M342.632538,246.523422 
	C342.632538,251.285202 342.632538,256.046967 342.632538,261.015900 
	C347.860840,261.015900 352.510406,261.041504 357.159546,261.008972 
	C362.174103,260.973816 365.748505,257.415283 365.803070,252.413788 
	C365.839355,249.087265 366.622711,245.472641 365.577423,242.515076 
	C364.561432,239.640518 361.980499,235.798508 359.485474,235.281113 
	C354.151184,234.174973 348.428345,234.942444 342.632568,234.942444 
	C342.632568,238.913284 342.632568,242.226303 342.632538,246.523422 
M170.894730,242.369690 
	C171.960159,241.734558 172.994354,240.624252 174.096786,240.551804 
	C177.662598,240.317413 181.253479,240.464310 185.104004,240.464310 
	C184.971985,238.200180 184.880859,236.637436 184.795944,235.180939 
	C177.803513,235.180939 171.216644,235.180939 164.499298,235.180939 
	C164.499298,243.859055 164.499298,252.259872 164.499298,260.721558 
	C171.494553,260.721558 178.221313,260.721558 185.108856,260.721558 
	C184.979462,258.810791 184.871536,257.217072 184.735413,255.206879 
	C180.007568,255.206879 175.586502,255.206879 170.901871,255.206879 
	C171.010498,253.517426 171.089417,252.289917 171.186279,250.783401 
	C174.606796,250.783401 177.710129,250.783401 180.966553,250.783401 
	C180.966553,248.731079 180.966553,246.982498 180.966553,245.074051 
	C178.675995,245.074051 176.651138,245.285400 174.698730,245.000427 
	C173.377136,244.807510 172.157455,243.916504 170.894730,242.369690 
M330.391815,240.463089 
	C332.847626,240.463089 335.303406,240.463089 337.789429,240.463089 
	C337.789429,238.379242 337.789429,236.793396 337.789429,235.300934 
	C330.842438,235.300934 324.136353,235.300934 317.437866,235.300934 
	C317.437866,243.969193 317.437866,252.240097 317.437866,260.767517 
	C324.367645,260.767517 331.095459,260.767517 337.800415,260.767517 
	C337.800415,258.942200 337.800415,257.346558 337.800415,255.327698 
	C333.165588,255.327698 328.737488,255.327698 324.130493,255.327698 
	C324.130493,253.674210 324.130493,252.446732 324.130493,250.931396 
	C327.472015,250.931396 330.589844,250.931396 333.982544,250.931396 
	C333.982544,248.892242 333.982544,247.140839 333.982544,244.927063 
	C330.552460,244.927063 327.316162,244.927063 323.837616,244.927063 
	C323.987305,243.187302 324.095581,241.928787 324.221680,240.463028 
	C326.133148,240.463028 327.783173,240.463028 330.391815,240.463089 
M252.763626,251.595886 
	C251.971680,259.281647 246.466690,253.470123 243.013580,256.139465 
	C243.013580,248.290955 243.013580,241.724594 243.013580,235.232651 
	C240.667236,235.232651 238.782791,235.232651 236.652542,235.232651 
	C236.652542,242.332565 236.305481,249.160507 236.882202,255.909500 
	C237.037842,257.730957 239.787628,260.413605 241.709595,260.775970 
	C245.720306,261.532166 250.052368,261.475037 254.091019,260.794403 
	C255.948105,260.481445 258.723602,258.010010 258.848633,256.349152 
	C259.379852,249.292419 259.074249,242.172684 259.074249,235.081619 
	C256.753754,235.081619 254.957062,235.081619 252.764221,235.081619 
	C252.764221,240.343353 252.764221,245.461533 252.763626,251.595886 
M281.974548,234.928375 
	C278.144775,234.928802 274.216095,234.417068 270.524017,235.130219 
	C268.455505,235.529755 265.319702,237.834671 265.179199,239.494019 
	C264.582245,246.543777 264.925720,253.673187 264.925720,260.657013 
	C267.357849,260.657013 269.246124,260.657013 271.463470,260.657013 
	C271.463470,253.865036 271.463470,247.420242 271.463470,240.709900 
	C274.705475,240.709900 277.606628,240.709900 280.959106,240.709900 
	C280.959106,247.556107 280.959106,254.139633 280.959106,260.738647 
	C283.304382,260.738647 285.194092,260.738647 287.351349,260.738647 
	C287.351349,253.826706 287.689758,247.152542 287.144867,240.551285 
	C286.981659,238.574173 284.352295,236.800629 281.974548,234.928375 
M223.367981,252.714523 
	C225.305939,252.714523 227.243912,252.714523 229.352249,252.714523 
	C229.352249,250.543594 229.352249,248.970062 229.352249,246.994064 
	C225.849411,246.994064 222.599472,246.994064 219.205811,246.994064 
	C219.205811,244.660721 219.205811,242.732498 219.205811,240.295990 
	C223.944229,240.295990 228.492905,240.295990 233.279831,240.295990 
	C233.163101,238.190506 233.075409,236.608643 233.001114,235.268372 
	C226.003372,235.268372 219.442307,235.268372 212.955566,235.268372 
	C212.955566,244.009048 212.955566,252.405746 212.955566,260.843475 
	C215.046188,260.843475 216.825562,260.843475 219.005371,260.843475 
	C219.005371,259.059113 219.198151,257.404144 218.963715,255.812073 
	C218.527115,252.847153 220.130020,252.456970 223.367981,252.714523 
M304.396149,240.459152 
	C307.481476,240.459152 310.566803,240.459152 313.966003,240.459152 
	C313.818787,238.195129 313.718018,236.645279 313.620483,235.145416 
	C306.600159,235.145416 300.018341,235.145416 293.403046,235.145416 
	C293.403046,243.894623 293.403046,252.402023 293.403046,260.848907 
	C295.559784,260.848907 297.355713,260.848907 299.366150,260.848907 
	C299.548401,258.130341 299.720093,255.569473 299.913208,252.688782 
	C303.348145,252.688782 306.455170,252.688782 309.737915,252.688782 
	C309.737915,250.636169 309.737915,248.939575 309.737915,246.799835 
	C306.216095,246.799835 302.977112,246.799835 299.587769,246.799835 
	C300.010162,243.789413 297.964813,239.798630 304.396149,240.459152 
M189.452316,234.908600 
	C188.686157,236.543716 187.920013,238.178818 186.942398,240.265228 
	C190.473969,240.441498 192.589706,240.547089 195.075409,240.671158 
	C195.075409,247.507523 195.075409,254.114014 195.075409,260.777710 
	C197.375732,260.777710 199.280289,260.777710 201.685425,260.777710 
	C201.685425,253.957733 201.685425,247.371002 201.685425,240.701508 
	C204.314163,240.530151 206.447479,240.391113 208.625900,240.249115 
	C208.625900,238.401123 208.625900,236.712402 208.625900,235.072205 
	C207.946915,234.997894 207.616623,234.930939 207.286148,234.930191 
	C201.623123,234.917496 195.960098,234.912949 189.452316,234.908600 
z"/>
<path fill="#F2F2F2" opacity="1.000000" stroke="none" 
	d="
M156.777634,243.187378 
	C153.000214,242.280518 149.635315,241.304474 146.228882,240.505371 
	C145.336563,240.296036 144.315369,240.636063 143.134613,240.743729 
	C143.134613,245.537628 143.134613,250.125687 143.134613,255.022675 
	C145.995682,255.022675 148.763199,255.022675 152.083344,255.022675 
	C152.174652,253.905304 152.284515,252.560928 152.414612,250.968918 
	C150.414307,250.783020 148.825317,250.635330 147.017487,250.467316 
	C147.017487,248.684372 147.017487,247.077057 147.017487,245.221909 
	C150.817429,245.221909 154.575546,245.221909 158.964111,245.221909 
	C158.964111,248.907455 159.569794,252.813782 158.716736,256.370209 
	C158.268768,258.237793 155.447189,260.417358 153.378235,260.821381 
	C149.685791,261.542450 145.751328,261.037201 141.918167,261.020905 
	C138.257538,261.005341 136.413040,258.928802 136.300400,255.485992 
	C136.136963,250.491486 135.766205,245.414566 136.491989,240.522354 
	C136.798599,238.455765 139.419113,235.587372 141.428818,235.160736 
	C145.415771,234.314377 149.752441,234.560699 153.855072,235.072632 
	C155.626938,235.293747 157.693329,236.995071 158.628891,238.603790 
	C159.169891,239.534058 157.725494,241.618988 156.777634,243.187378 
z"/>
<path fill="#F7F7F7" opacity="1.000000" stroke="none" 
	d="
M342.632568,246.031372 
	C342.632568,242.226303 342.632568,238.913284 342.632568,234.942444 
	C348.428345,234.942444 354.151184,234.174973 359.485474,235.281113 
	C361.980499,235.798508 364.561432,239.640518 365.577423,242.515076 
	C366.622711,245.472641 365.839355,249.087265 365.803070,252.413788 
	C365.748505,257.415283 362.174103,260.973816 357.159546,261.008972 
	C352.510406,261.041504 347.860840,261.015900 342.632538,261.015900 
	C342.632538,256.046967 342.632538,251.285202 342.632568,246.031372 
M349.014160,243.828003 
	C349.014160,247.610596 349.014160,251.393204 349.014160,255.140686 
	C359.230164,255.701767 359.230682,255.701767 359.162842,246.263428 
	C359.155670,245.266907 359.542603,243.910812 359.042236,243.348480 
	C357.984253,242.159592 356.362335,240.503357 355.149261,240.637970 
	C353.081116,240.867462 349.495422,238.235779 349.014160,243.828003 
z"/>
<path fill="#F1F1F1" opacity="1.000000" stroke="none" 
	d="
M170.893463,242.853714 
	C172.157455,243.916504 173.377136,244.807510 174.698730,245.000427 
	C176.651138,245.285400 178.675995,245.074051 180.966553,245.074051 
	C180.966553,246.982498 180.966553,248.731079 180.966553,250.783401 
	C177.710129,250.783401 174.606796,250.783401 171.186279,250.783401 
	C171.089417,252.289917 171.010498,253.517426 170.901871,255.206879 
	C175.586502,255.206879 180.007568,255.206879 184.735413,255.206879 
	C184.871536,257.217072 184.979462,258.810791 185.108856,260.721558 
	C178.221313,260.721558 171.494553,260.721558 164.499298,260.721558 
	C164.499298,252.259872 164.499298,243.859055 164.499298,235.180939 
	C171.216644,235.180939 177.803513,235.180939 184.795944,235.180939 
	C184.880859,236.637436 184.971985,238.200180 185.104004,240.464310 
	C181.253479,240.464310 177.662598,240.317413 174.096786,240.551804 
	C172.994354,240.624252 171.960159,241.734558 170.893463,242.853714 
z"/>
<path fill="#F1F1F1" opacity="1.000000" stroke="none" 
	d="
M329.912537,240.463058 
	C327.783173,240.463028 326.133148,240.463028 324.221680,240.463028 
	C324.095581,241.928787 323.987305,243.187302 323.837616,244.927063 
	C327.316162,244.927063 330.552460,244.927063 333.982544,244.927063 
	C333.982544,247.140839 333.982544,248.892242 333.982544,250.931396 
	C330.589844,250.931396 327.472015,250.931396 324.130493,250.931396 
	C324.130493,252.446732 324.130493,253.674210 324.130493,255.327698 
	C328.737488,255.327698 333.165588,255.327698 337.800415,255.327698 
	C337.800415,257.346558 337.800415,258.942200 337.800415,260.767517 
	C331.095459,260.767517 324.367645,260.767517 317.437866,260.767517 
	C317.437866,252.240097 317.437866,243.969193 317.437866,235.300934 
	C324.136353,235.300934 330.842438,235.300934 337.789429,235.300934 
	C337.789429,236.793396 337.789429,238.379242 337.789429,240.463089 
	C335.303406,240.463089 332.847626,240.463089 329.912537,240.463058 
z"/>
<path fill="#FBFBFB" opacity="1.000000" stroke="none" 
	d="
M252.763916,251.087799 
	C252.764221,245.461533 252.764221,240.343353 252.764221,235.081619 
	C254.957062,235.081619 256.753754,235.081619 259.074249,235.081619 
	C259.074249,242.172684 259.379852,249.292419 258.848633,256.349152 
	C258.723602,258.010010 255.948105,260.481445 254.091019,260.794403 
	C250.052368,261.475037 245.720306,261.532166 241.709595,260.775970 
	C239.787628,260.413605 237.037842,257.730957 236.882202,255.909500 
	C236.305481,249.160507 236.652542,242.332565 236.652542,235.232651 
	C238.782791,235.232651 240.667236,235.232651 243.013580,235.232651 
	C243.013580,241.724594 243.013580,248.290955 243.013580,256.139465 
	C246.466690,253.470123 251.971680,259.281647 252.763916,251.087799 
z"/>
<path fill="#FBFBFB" opacity="1.000000" stroke="none" 
	d="
M282.413666,234.931091 
	C284.352295,236.800629 286.981659,238.574173 287.144867,240.551285 
	C287.689758,247.152542 287.351349,253.826706 287.351349,260.738647 
	C285.194092,260.738647 283.304382,260.738647 280.959106,260.738647 
	C280.959106,254.139633 280.959106,247.556107 280.959106,240.709900 
	C277.606628,240.709900 274.705475,240.709900 271.463470,240.709900 
	C271.463470,247.420242 271.463470,253.865036 271.463470,260.657013 
	C269.246124,260.657013 267.357849,260.657013 264.925720,260.657013 
	C264.925720,253.673187 264.582245,246.543777 265.179199,239.494019 
	C265.319702,237.834671 268.455505,235.529755 270.524017,235.130219 
	C274.216095,234.417068 278.144775,234.928802 282.413666,234.931091 
z"/>
<path fill="#FBFBFB" opacity="1.000000" stroke="none" 
	d="
M222.901123,252.714600 
	C220.130020,252.456970 218.527115,252.847153 218.963715,255.812073 
	C219.198151,257.404144 219.005371,259.059113 219.005371,260.843475 
	C216.825562,260.843475 215.046188,260.843475 212.955566,260.843475 
	C212.955566,252.405746 212.955566,244.009048 212.955566,235.268372 
	C219.442307,235.268372 226.003372,235.268372 233.001114,235.268372 
	C233.075409,236.608643 233.163101,238.190506 233.279831,240.295990 
	C228.492905,240.295990 223.944229,240.295990 219.205811,240.295990 
	C219.205811,242.732498 219.205811,244.660721 219.205811,246.994064 
	C222.599472,246.994064 225.849411,246.994064 229.352249,246.994064 
	C229.352249,248.970062 229.352249,250.543594 229.352249,252.714523 
	C227.243912,252.714523 225.305939,252.714523 222.901123,252.714600 
z"/>
<path fill="#F2F2F2" opacity="1.000000" stroke="none" 
	d="
M303.904358,240.459290 
	C297.964813,239.798630 300.010162,243.789413 299.587769,246.799835 
	C302.977112,246.799835 306.216095,246.799835 309.737915,246.799835 
	C309.737915,248.939575 309.737915,250.636169 309.737915,252.688782 
	C306.455170,252.688782 303.348145,252.688782 299.913208,252.688782 
	C299.720093,255.569473 299.548401,258.130341 299.366150,260.848907 
	C297.355713,260.848907 295.559784,260.848907 293.403046,260.848907 
	C293.403046,252.402023 293.403046,243.894623 293.403046,235.145416 
	C300.018341,235.145416 306.600159,235.145416 313.620483,235.145416 
	C313.718018,236.645279 313.818787,238.195129 313.966003,240.459152 
	C310.566803,240.459152 307.481476,240.459152 303.904358,240.459290 
z"/>
<path fill="#F2F2F2" opacity="1.000000" stroke="none" 
	d="
M189.874695,234.907623 
	C195.960098,234.912949 201.623123,234.917496 207.286148,234.930191 
	C207.616623,234.930939 207.946915,234.997894 208.625900,235.072205 
	C208.625900,236.712402 208.625900,238.401123 208.625900,240.249115 
	C206.447479,240.391113 204.314163,240.530151 201.685425,240.701508 
	C201.685425,247.371002 201.685425,253.957733 201.685425,260.777710 
	C199.280289,260.777710 197.375732,260.777710 195.075409,260.777710 
	C195.075409,254.114014 195.075409,247.507523 195.075409,240.671158 
	C192.589706,240.547089 190.473969,240.441498 186.942398,240.265228 
	C187.920013,238.178818 188.686157,236.543716 189.874695,234.907623 
z"/>
<path fill="#000000" opacity="1.000000" stroke="none" 
	d="
M349.014587,243.369827 
	C349.495422,238.235779 353.081116,240.867462 355.149261,240.637970 
	C356.362335,240.503357 357.984253,242.159592 359.042236,243.348480 
	C359.542603,243.910812 359.155670,245.266907 359.162842,246.263428 
	C359.230682,255.701767 359.230164,255.701767 349.014160,255.140686 
	C349.014160,251.393204 349.014160,247.610596 349.014587,243.369827 
z"/>
</svg>